# xmcd CD database file
#
# Track frame offsets:
#	150
#	13185
#	26675
#	40810
#	55677
#	68032
#	80645
#	93015
#	104737
#	117817
#	131700
#	146122
#	158577
#	170072
#	184962
#	198122
#	210967
#	224017
#
# Disc length: 3154 seconds
#
# Revision: 2
# Processed by: cddbd v1.5.2PL0 Copyright (c) Steve Scherf et al.
# Submitted via: CDex 1.51
#
DISCID=020c5012
DTITLE=Erroll Garner - Trio and Solo  {1945-1947}
DYEAR=1998
DGENRE=Jazz
TTITLE0=Twistin' The Cat's Tail   [1945]
TTITLE1=White Rose Bounce   [1945]
TTITLE2=Movin' Around   [1945]
TTITLE3=Night And Day   [1945]
TTITLE4=Laura   [1945]
TTITLE5=Star Dust   [1945]
TTITLE6=Sombody Loves Me   [1945]
TTITLE7=Back Home Again In Indiana   [1945]
TTITLE8=Pastel   [1947]
TTITLE9=Trio   [1947]
TTITLE10=Play Piano Play   [1947]
TTITLE11=Love Is The Strangest Game   [1947]
TTITLE12=Blue Garni   [1947]
TTITLE13=Don't Worry 'Bout Me   [1947]
TTITLE14=Loose Nuts   [1947]
TTITLE15=Love For Sale   [1947]
TTITLE16=Frankie And Johnny Fantasy   [1947]
TTITLE17=Sloe Gin Fizz   [1947]
EXTD=YEAR: 1998
EXTT0=
EXTT1=
EXTT2=
EXTT3=
EXTT4=
EXTT5=
EXTT6=
EXTT7=
EXTT8=
EXTT9=
EXTT10=
EXTT11=
EXTT12=
EXTT13=
EXTT14=
EXTT15=
EXTT16=
EXTT17=
PLAYORDER=
